<svg xmlns="http://www.w3.org/2000/svg" viewBox="0 0 15.33 19.3"><path d="M3.29 18.72a11.37 11.37 0 0 1 0-3.44l1.41-6a4.33 4.33 0 0 1-.36-1.78c0-1.67 1-2.92 2.17-2.92a1.51 1.51 0 0 1 1.52 1.69 24.2 24.2 0 0 1-1 4 1.75 1.75 0 0 0 1.78 2.17c2.13 0 3.77-2.25 3.77-5.5a4.73 4.73 0 0 0-5-4.88 5.2 5.2 0 0 0-5.39 5.25 4.71 4.71 0 0 0 .89 2.74.34.34 0 0 1 .09.34l-.34 1.36c-.05.22-.17.27-.4.16C.93 11.21.01 9 .01 7.26.01 3.48 2.75 0 7.93 0c4.16 0 7.39 3 7.39 6.93 0 4.14-2.6 7.47-6.22 7.47A3.22 3.22 0 0 1 6.35 13l-.75 2.85A13.47 13.47 0 0 1 4.11 19c-.69.79-.82-.28-.82-.28z" fill="#c2c1c1"/></svg>