<?xml version="1.0" standalone="no"?>
<!DOCTYPE svg PUBLIC "-//W3C//DTD SVG 20010904//EN"
 "http://www.w3.org/TR/2001/REC-SVG-20010904/DTD/svg10.dtd">
<svg version="1.0" xmlns="http://www.w3.org/2000/svg"
 width="544.000000pt" height="544.000000pt" viewBox="0 0 544.000000 544.000000"
 preserveAspectRatio="xMidYMid meet">
<metadata>
Created by potrace 1.11, written by Peter Selinger 2001-2013
</metadata>
<g transform="translate(0.000000,544.000000) scale(0.100000,-0.100000)"
fill="#000000" stroke="none">
<path d="M0 2720 l0 -2720 2720 0 2720 0 0 2720 0 2720 -2720 0 -2720 0 0
-2720z m1468 1316 c34 -116 104 -348 153 -516 50 -168 96 -310 102 -317 7 -6
129 -80 272 -164 143 -83 354 -207 469 -274 187 -109 212 -122 234 -112 17 8
32 8 52 0 27 -10 44 -2 250 121 122 72 245 144 274 160 28 15 58 34 67 42 8 8
19 14 23 14 10 0 349 199 362 213 7 7 40 107 74 222 214 724 263 877 274 863
2 -1 74 -158 161 -348 87 -190 159 -346 159 -347 1 -1 71 39 156 89 85 50 209
122 275 161 66 39 182 108 258 154 76 45 142 83 147 83 4 0 4 -15 -1 -32 -10
-41 -274 -1139 -324 -1350 l-37 -158 -76 -47 c-43 -25 -108 -66 -147 -90 -38
-25 -169 -105 -290 -180 -293 -180 -579 -357 -747 -462 -76 -47 -145 -90 -155
-96 -25 -14 -161 -97 -253 -155 -150 -95 -470 -290 -475 -290 -6 0 -241 144
-435 265 -136 86 -379 235 -522 322 -57 34 -107 65 -113 70 -5 5 -66 43 -135
85 -69 41 -181 110 -250 153 -69 43 -137 85 -152 94 -43 26 -250 154 -446 276
-50 32 -92 60 -92 62 0 14 -324 1368 -359 1501 -5 17 -5 32 -1 32 5 0 62 -32
127 -72 101 -61 284 -169 388 -228 16 -10 95 -56 175 -103 l145 -85 33 71 c18
40 90 197 160 349 120 261 128 276 142 256 8 -12 43 -116 78 -232z"/>
<path d="M4047 4158 c-10 -35 -75 -256 -146 -493 -71 -236 -127 -431 -126
-433 3 -4 565 325 579 338 7 7 -207 490 -278 628 -11 21 -13 18 -29 -40z"/>
<path d="M1351 4149 c-16 -35 -82 -176 -145 -313 -64 -138 -116 -253 -116
-258 0 -4 44 -33 98 -64 53 -32 184 -109 290 -172 107 -62 195 -112 197 -110
1 1 -13 55 -32 118 -208 699 -256 855 -259 859 -2 2 -17 -25 -33 -60z"/>
<path d="M290 3928 c0 -14 301 -1274 308 -1292 6 -14 46 64 159 309 l151 328
-301 321 c-165 177 -304 325 -309 331 -4 5 -8 6 -8 3z"/>
<path d="M5140 3911 c-8 -9 -146 -156 -306 -327 l-292 -311 14 -29 c86 -182
284 -619 284 -627 0 -30 13 14 44 144 18 79 75 317 126 529 143 601 150 633
148 636 -2 1 -10 -5 -18 -15z"/>
<path d="M581 3804 c30 -32 127 -135 215 -229 87 -93 162 -171 165 -173 9 -4
78 152 70 160 -4 4 -103 64 -221 134 -118 69 -231 135 -250 146 -32 19 -30 15
21 -38z"/>
<path d="M4671 3715 c-133 -79 -247 -147 -251 -152 -8 -9 59 -165 70 -161 3 2
75 77 160 168 84 91 181 193 214 228 33 34 58 62 56 61 -3 0 -115 -65 -249
-144z"/>
<path d="M1030 3455 l-40 -87 94 -102 c52 -55 130 -138 173 -184 l78 -82 163
92 c89 51 162 96 162 99 0 4 -118 75 -262 160 -145 84 -278 162 -296 172 l-32
19 -40 -87z"/>
<path d="M4085 3370 c-159 -93 -291 -173 -292 -177 -2 -5 70 -50 159 -101
l163 -93 75 80 c41 43 119 126 172 184 l98 104 -40 87 c-22 47 -41 86 -42 86
-2 0 -133 -77 -293 -170z"/>
<path d="M912 3200 c-11 -25 -76 -168 -146 -318 -69 -151 -126 -275 -126 -277
0 -2 114 62 253 142 138 80 269 154 289 165 l38 20 -20 26 c-11 15 -76 86
-144 157 l-124 130 -20 -45z"/>
<path d="M4371 3089 c-78 -83 -139 -155 -134 -158 13 -12 559 -321 566 -321 4
0 -14 44 -39 98 -25 53 -88 192 -141 307 -53 116 -99 214 -103 218 -4 4 -71
-60 -149 -144z"/>
<path d="M1540 3078 c-85 -49 -161 -93 -169 -97 -10 -6 61 -88 274 -315 158
-169 289 -305 291 -304 2 3 -235 800 -239 804 -1 1 -72 -38 -157 -88z"/>
<path d="M3746 3153 c-3 -10 -48 -162 -100 -338 -52 -176 -104 -349 -115 -385
-11 -35 -19 -66 -17 -67 6 -7 221 229 218 239 -1 5 2 7 7 4 5 -4 19 5 30 20
11 14 84 93 163 176 79 83 146 156 150 163 5 9 -38 38 -140 95 -81 46 -157 90
-169 97 -19 13 -22 12 -27 -4z"/>
<path d="M1780 2993 c26 -87 82 -277 125 -423 63 -212 84 -271 106 -294 l27
-29 298 181 c164 99 299 184 301 189 1 4 -160 103 -359 218 -198 116 -400 234
-449 263 -49 28 -90 52 -92 52 -3 0 17 -71 43 -157z"/>
<path d="M3470 3010 c-129 -77 -330 -195 -447 -262 -117 -68 -212 -126 -213
-129 0 -6 568 -355 594 -365 34 -13 62 54 160 382 54 181 110 371 126 422 15
50 25 92 21 91 -3 0 -112 -63 -241 -139z"/>
<path d="M950 2742 c-162 -93 -303 -173 -312 -178 -17 -9 127 -102 863 -554
76 -47 307 -190 513 -317 206 -128 379 -233 385 -233 5 0 11 -4 13 -8 2 -4 59
-42 127 -85 68 -42 119 -72 114 -65 -166 215 -635 791 -683 838 -36 36 -213
224 -394 418 -181 193 -329 352 -330 352 0 0 -134 -76 -296 -168z"/>
<path d="M3874 2557 c-181 -193 -359 -382 -397 -419 -37 -37 -122 -136 -189
-220 -67 -84 -156 -196 -198 -249 -257 -319 -302 -377 -280 -364 8 5 305 189
660 408 355 220 683 424 730 452 96 60 254 157 477 295 83 52 151 95 150 96
-6 4 -585 333 -603 342 -19 10 -48 -18 -350 -341z"/>
<path d="M2731 1903 l0 -638 22 29 c12 16 49 61 81 100 33 39 71 87 85 106 20
27 380 478 483 605 17 22 46 3 -634 413 l-38 23 1 -638z"/>
<path d="M2520 2419 c-96 -60 -182 -112 -191 -116 -9 -5 -79 -46 -157 -93
-123 -73 -140 -86 -128 -100 7 -8 142 -177 300 -375 158 -198 305 -382 327
-409 l39 -49 0 627 c0 344 -3 626 -7 625 -5 0 -87 -50 -183 -110z"/>
</g>
</svg>
