<svg version="1" xmlns="http://www.w3.org/2000/svg" width="933.333" height="933.333" viewBox="0 0 700.000000 700.000000"><path d="M529.8 151.7c-2.5 8.7-12.1 41.9-21.3 73.8-9.2 31.9-17 59-17.2 60.2-.3 1.4-4 4.2-11.1 8.6-5.9 3.5-20.6 12.4-32.7 19.7-12.1 7.3-29.2 17.7-38 23-57.7 35-54.3 33.1-59.6 33.5-5.1.3-5.2.2-46.2-24.9-22.7-13.9-46.3-28.3-52.5-32.2-6.2-3.8-12-7.4-13-7.9-.9-.6-7.8-4.7-15.2-9.2l-13.6-8.3-9.8-32.2c-5.5-17.8-11.4-37-13.2-42.8-1.8-5.8-7.5-24.7-12.8-42-5.3-17.3-9.9-32.2-10.2-33-.5-1.5-1.9 1.1-8.9 16.5-1.5 3.3-9.4 20.4-17.5 38s-15.8 34.4-17 37.3c-1.3 2.9-2.8 5.1-3.4 4.8-.6-.2-26.7-15-58.1-32.9-31.4-17.8-57.1-32.3-57.3-32.2-.1.1 2.7 12.3 6.4 27.1 7.1 29.1 13.3 55 13.9 57.4l2 8c.9 3.6 1.8 7.2 2 8.1.2.9 3.7 15.5 7.9 32.5s10 40.9 13 53.2c3 12.3 5.5 22.4 5.7 22.6.6.4 289.7 180.8 293.9 183.3l3.5 2.1 8.3-5.1c4.5-2.9 26.6-16.6 49-30.6s43-26.9 45.7-28.7c2.8-1.7 26.2-16.3 52-32.4 25.9-16.1 49.3-30.7 52-32.5 2.8-1.8 23.7-14.8 46.5-29s42-26.3 42.7-26.9c.7-.6 3.7-10.8 6.7-22.6s9.6-37.7 14.6-57.5c5.1-19.8 9.3-36.7 9.5-37.5.2-.8 4.9-19.7 10.6-42 5.6-22.3 10.7-42.8 11.4-45.6l1.2-5.1-54.1 31c-64.5 36.8-64.7 36.9-65 36.5-.1-.2-1.9-4.1-4.1-8.8-2.1-4.7-6.5-14-9.7-20.8-3.2-6.8-5.8-12.5-5.8-12.7 0-.2-2-4.6-4.4-9.7-2.5-5.1-8.5-18-13.4-28.6l-8.9-19.2-4.5 15.7zM169 170.5c3.4 11 7.5 24.5 9.1 30 1.7 5.5 4.8 15.6 6.9 22.5 12.5 40.2 18 58.4 18 59.5 0 .8-7.2-2.7-16.7-8.2-9.3-5.3-18.8-10.7-21.3-12.1-2.5-1.3-7.4-4.2-11-6.2-3.6-2.1-8.7-5-11.5-6.5-10.9-6-20.5-11.7-20.9-12.3-.2-.4 1-3.6 2.8-7.2 1.7-3.6 6.9-14.8 11.5-25s10.7-23.5 13.6-29.5c2.8-6.1 6.6-14.5 8.5-18.7 1.9-4.3 3.8-7.4 4.2-7 .3.4 3.4 9.7 6.8 20.7zm374.5-4.5c4.2 9.1 9 19.2 10.5 22.5 1.5 3.3 5.8 12.5 9.5 20.5s8.3 17.8 10.2 21.9c1.9 4 3.3 7.5 3.1 7.6-.7.7-78.3 44.7-79.6 45.3-1.2.4-1.4.1-.9-1.2.4-1 9-30.9 19.2-66.4 20.5-71.3 19.4-67.6 19.9-67.1.3.2 3.9 7.8 8.1 16.9zM691 186.2c-5.3 20.8-30.2 119.5-30.5 120.8-.2.8-3.1 12.3-6.5 25.5s-6.3 24.7-6.5 25.5c-1.1 5.2-2.9 11.6-3.4 12.3-.4.4-4.9-8.4-10.1-19.5-5.1-11.2-12.9-28-17.3-37.3-4.3-9.4-9.1-19.5-10.4-22.5-1.4-3-4.1-8.9-6.1-13-14.2-30.6-17.1-37.3-16.7-38 .3-.5 1.8-1.5 3.3-2.3 1.5-.8 15.1-8.5 30.2-17.2 15.1-8.6 29.3-16.7 31.5-18 2.2-1.2 8.5-4.8 14-8 5.5-3.1 11.8-6.7 14-8 2.2-1.2 6.7-3.8 10-5.7 3.3-1.9 6.2-3.4 6.3-3.2.2.1-.6 4-1.8 8.6zm-679.5-6.4c1.7 1 5 3 7.5 4.4 2.5 1.4 16 9 30 17 14 7.9 34.6 19.6 45.7 25.9 11.1 6.3 20.3 11.9 20.3 12.5 0 .7-2.3 6.1-5.1 12-5.6 12.1-8.4 18-12.4 26.9-1.5 3.3-7.7 16.8-13.7 30-6.1 13.2-14.9 32.3-19.5 42.5-4.6 10.2-8.8 18.8-9.1 19.2-.4.4-4.5-14.6-9.1-33.5-4.6-18.8-12.1-49.5-16.7-68.2-4.5-18.7-11-45.3-14.3-59-3.3-13.8-6.5-26.5-7-28.3-1.1-3.7-.7-3.9 3.4-1.4zM135 250.1c8 4.5 16.3 9.3 18.5 10.5 2.2 1.2 14.2 8 26.6 15l22.7 12.9-8.7 5.2C166.9 310 151.5 319 150.6 319c-.5 0-2.1-1.3-3.5-2.9-1.4-1.6-9-9.6-16.7-17.7-7.8-8.2-16.6-17.5-19.6-20.8l-5.5-5.8 7-15.4c3.8-8.4 7.3-15.2 7.6-15 .3.2 7.1 4.1 15.1 8.7zm451.3 7.7c3.7 8.1 6.7 15.2 6.7 15.7 0 1.1-1.9 3.2-21 23.5-6.5 6.9-13.9 14.9-16.6 17.8l-4.9 5.2-9-5.3c-4.9-2.9-16.2-9.5-25-14.7-8.8-5.1-16.6-9.8-17.2-10.4-1.3-1.1 5.8-5.6 29.1-18.4 3.4-1.9 10.2-5.8 15.1-8.7 5-2.9 11.3-6.5 14-8 5.6-3.2 8.9-5 15.5-8.9 2.5-1.4 5-2.6 5.5-2.6.6 0 4 6.7 7.8 14.8zm-460.8 51.6c7.7 8.1 14.1 15.1 14.3 15.6.2.4-3.9 3.3-9 6.3s-23.4 13.8-40.6 24.1c-23.8 14.1-31.1 18-30.6 16.4.3-1.2 2.6-6.2 4.9-11.2 2.4-5 8-17.2 12.5-27.1 4.6-9.9 11-23.9 14.2-31 3.3-7.2 6.7-14.5 7.5-16.4l1.4-3.4 5.7 6c3.1 3.3 12 12.6 19.7 20.7zm482-5.9c4.3 9.3 10.4 22.6 13.7 29.4 3.2 6.8 5.8 12.5 5.8 12.6 0 .2 2.3 5.2 5.1 11.1 7.9 16.7 7.9 15.9.1 11.3-40.7-23.6-70.7-41.7-70.7-42.6 0-.5 6.1-7.5 13.7-15.4 7.5-7.9 15.8-16.7 18.5-19.6 2.6-2.8 5.1-4.8 5.4-4.5.3.4 4.1 8.3 8.4 17.7zm-386.5 38c8.3 26.9 16.9 54.8 19.1 62 2.2 7.1 4.2 13.7 4.5 14.5.2.8-1.2-.3-3.2-2.5s-10.7-11.4-19.3-20.4c-8.6-9-17.6-18.5-20-21-2.3-2.5-7.5-8-11.5-12.1-26.6-28.1-36.1-38.2-36.4-38.8-.2-.7 50.9-31.4 51.4-30.9.1.1 7 22.2 15.4 49.2zM515 304c5.2 3.1 14.3 8.5 20.2 11.9 6 3.5 11 6.6 11.2 7 .3.4-1.8 3.3-4.7 6.3-13.3 14.3-19 20.4-32.6 34.8-21.2 22.5-36.9 39.2-46.5 49.4-2.5 2.8-4.6 4.7-4.6 4.3 0-.5 5.7-20.2 30.3-104.4l6.1-21.2 5.6 3.1c3 1.8 9.8 5.7 15 8.8zm-246.5 25c30.8 18.9 59.7 36.6 64.3 39.3 4.5 2.7 8.2 5.2 8.2 5.6 0 .5-72.6 44.8-83.7 51-2.4 1.3-4.5 2.2-4.8 1.9-.5-.4-14-44-36-115.5-2.9-9.5-5-17.1-4.6-16.9.3.2 25.8 15.8 56.6 34.6zm219.4-31.8c-.5 1.8-3.2 10.9-5.9 20.3-2.7 9.3-8.5 29.6-13 45-4.4 15.4-10.4 36-13.2 45.8-2.8 9.9-5.7 18.1-6.4 18.4-.6.2-7.4-3.3-15-7.9-7.7-4.5-14.8-8.8-15.9-9.4-2.6-1.4-59.9-35.5-60.2-35.8-.5-.4 6.2-4.5 66.7-41.1 31.6-19.1 58.9-35.6 60.5-36.6 1.7-1 3.1-1.9 3.2-1.9.1 0-.3 1.5-.8 3.2zm-336 40c4.3 4.6 9.3 9.9 11.1 11.8 1.8 1.9 6.9 7.3 11.4 12 4.4 4.7 15.3 16.2 24.1 25.5s20.3 21.4 25.6 27c5.3 5.5 12.9 13.5 16.9 17.8 4.3 4.5 8.5 8.1 10 8.4 1.8.3 6.8 6 18.5 21 8.8 11.3 16.5 21 17 21.7.6.6 5.5 6.7 10.8 13.6 5.4 6.9 10.3 13.2 11 14 .7.8 7.2 9.1 14.6 18.5 7.3 9.3 14.7 18.7 16.5 20.9 4.6 5.7 4.4 6.2-1.5 2.4-3-1.9-20.5-12.8-38.9-24.2-18.4-11.5-35.1-21.9-37-23.2-1.9-1.2-48.2-30.1-102.8-64.2l-99.3-61.9 41.3-24.6c22.7-13.5 41.6-24.6 42-24.6.4-.1 4.3 3.6 8.7 8.1zm447.3 16.3l40.8 23.9-3.3 2c-1.7 1-5.4 3.4-8.2 5.1-2.7 1.8-22.5 14.1-44 27.5-21.4 13.3-40.6 25.3-42.5 26.5-1.9 1.3-14.5 9.1-28 17.5s-26.7 16.7-29.5 18.5c-2.7 1.7-25.1 15.7-49.7 31.1-24.6 15.3-51.4 32.1-59.5 37.2-8.2 5.1-16.1 10-17.7 10.8l-2.9 1.6 3.2-3.8c3.4-4 9.6-11.6 56.6-68.9 15.3-18.7 29.4-35.9 31.4-38.3 1.9-2.3 4.3-4.2 5.2-4.2 1.7 0 10.8-9.2 47.4-48.5 6.5-7 16.5-17.6 31.6-33.5 8-8.5 17.4-18.5 20.9-22.2 3.4-3.7 6.5-6.6 6.9-6.4.3.1 18.9 11 41.3 24.1zm-241.4 32.8c21.3 12.5 85.8 51.1 86.4 51.6.7.6-2.9 5.3-14.8 19.6-1.8 2.2-9 11-15.9 19.5-13 15.8-15.3 18.6-24.6 30-3 3.6-5.9 7.2-6.6 8-3.9 4.9-11.8 14.6-12.3 15-.3.3-4 4.9-8.3 10.2-4.3 5.3-8.4 10.1-9.1 10.7-.9.8-1.2-17.2-1.2-83.5 0-46.4.2-84.4.4-84.4s2.9 1.5 6 3.3zM347 468.2v84.1l-10.5-13.4c-5.8-7.4-15.6-19.9-21.8-27.7-6.1-7.9-11.7-14.9-12.2-15.5-.6-.7-6.8-8.6-13.9-17.7-7.2-9.1-16.9-21.5-21.8-27.6-4.8-6.2-8.8-11.6-8.8-12 0-.7 87.6-54.3 88.8-54.4.1 0 .2 37.9.2 84.2z"/></svg>