<?xml version="1.0" standalone="no"?>
<!DOCTYPE svg PUBLIC "-//W3C//DTD SVG 20010904//EN"
 "http://www.w3.org/TR/2001/REC-SVG-20010904/DTD/svg10.dtd">
<svg version="1.0" xmlns="http://www.w3.org/2000/svg"
 width="700.000000pt" height="700.000000pt" viewBox="0 0 700.000000 700.000000"
 preserveAspectRatio="xMidYMid meet">
<metadata>
Created by potrace 1.11, written by Peter Selinger 2001-2013
</metadata>
<g transform="translate(0.000000,700.000000) scale(0.100000,-0.100000)"
fill="#000000" stroke="none">
<path d="M5298 5483 c-25 -87 -121 -419 -213 -738 -92 -319 -170 -590 -172
-602 -3 -14 -40 -42 -111 -86 -59 -35 -206 -124 -327 -197 -121 -73 -292 -177
-380 -230 -577 -350 -543 -331 -596 -335 -51 -3 -52 -2 -462 249 -227 139
-463 283 -525 322 -62 38 -120 74 -130 79 -9 6 -78 47 -152 92 l-136 83 -98
322 c-55 178 -114 370 -132 428 -18 58 -75 247 -128 420 -53 173 -99 322 -102
330 -5 15 -19 -11 -89 -165 -15 -33 -94 -204 -175 -380 -81 -176 -158 -344
-170 -373 -13 -29 -28 -51 -34 -48 -6 2 -267 150 -581 329 -314 178 -571 323
-573 322 -1 -1 27 -123 64 -271 71 -291 133 -550 139 -574 2 -8 11 -44 20 -80
9 -36 18 -72 20 -81 2 -9 37 -155 79 -325 42 -170 100 -409 130 -532 30 -123
55 -224 57 -226 6 -4 2897 -1808 2939 -1833 l35 -21 83 51 c45 29 266 166 490
306 224 140 430 269 457 287 28 17 262 163 520 324 259 161 493 307 520 325
28 18 237 148 465 290 228 142 420 263 427 269 7 6 37 108 67 226 30 118 96
377 146 575 51 198 93 367 95 375 2 8 49 197 106 420 56 223 107 428 114 456
l12 51 -541 -310 c-645 -368 -647 -369 -650 -365 -1 2 -19 41 -41 88 -21 47
-65 140 -97 208 -32 68 -58 125 -58 127 0 2 -20 46 -44 97 -25 51 -85 180
-134 286 l-89 192 -45 -157z m-3608 -188 c34 -110 75 -245 91 -300 17 -55 48
-156 69 -225 125 -402 180 -584 180 -595 0 -8 -72 27 -167 82 -93 53 -188 107
-213 121 -25 13 -74 42 -110 62 -36 21 -87 50 -115 65 -109 60 -205 117 -209
123 -2 4 10 36 28 72 17 36 69 148 115 250 46 102 107 235 136 295 28 61 66
145 85 187 19 43 38 74 42 70 3 -4 34 -97 68 -207z m3745 45 c42 -91 90 -192
105 -225 15 -33 58 -125 95 -205 37 -80 83 -178 102 -219 19 -40 33 -75 31
-76 -7 -7 -783 -447 -796 -453 -12 -4 -14 -1 -9 12 4 10 90 309 192 664 205
713 194 676 199 671 3 -2 39 -78 81 -169z m1475 -202 c-53 -208 -302 -1195
-305 -1208 -2 -8 -31 -123 -65 -255 -34 -132 -63 -247 -65 -255 -11 -52 -29
-116 -34 -123 -4 -4 -49 84 -101 195 -51 112 -129 280 -173 373 -43 94 -91
195 -104 225 -14 30 -41 89 -61 130 -142 306 -171 373 -167 380 3 5 18 15 33
23 15 8 151 85 302 172 151 86 293 167 315 180 22 12 85 48 140 80 55 31 118
67 140 80 22 12 67 38 100 57 33 19 62 34 63 32 2 -1 -6 -40 -18 -86z m-6795
64 c17 -10 50 -30 75 -44 25 -14 160 -90 300 -170 140 -79 346 -196 457 -259
111 -63 203 -119 203 -125 0 -7 -23 -61 -51 -120 -56 -121 -84 -180 -124 -269
-15 -33 -77 -168 -137 -300 -61 -132 -149 -323 -195 -425 -46 -102 -88 -188
-91 -192 -4 -4 -45 146 -91 335 -46 188 -121 495 -167 682 -45 187 -110 453
-143 590 -33 138 -65 265 -70 283 -11 37 -7 39 34 14z m1235 -703 c80 -45 163
-93 185 -105 22 -12 142 -80 266 -150 l227 -129 -87 -52 c-272 -163 -426 -253
-435 -253 -5 0 -21 13 -35 29 -14 16 -90 96 -167 177 -78 82 -166 175 -196
208 l-55 58 70 154 c38 84 73 152 76 150 3 -2 71 -41 151 -87z m4513 -77 c37
-81 67 -152 67 -157 0 -11 -19 -32 -210 -235 -65 -69 -139 -149 -166 -178
l-49 -52 -90 53 c-49 29 -162 95 -250 147 -88 51 -166 98 -172 104 -13 11 58
56 291 184 34 19 102 58 151 87 50 29 113 65 140 80 56 32 89 50 155 89 25 14
50 26 55 26 6 0 40 -67 78 -148z m-4608 -516 c77 -81 141 -151 143 -156 2 -4
-39 -33 -90 -63 -51 -30 -234 -138 -406 -241 -238 -141 -311 -180 -306 -164 3
12 26 62 49 112 24 50 80 172 125 271 46 99 110 239 142 310 33 72 67 145 75
164 l14 34 57 -60 c31 -33 120 -126 197 -207z m4820 59 c43 -93 104 -226 137
-294 32 -68 58 -125 58 -126 0 -2 23 -52 51 -111 79 -167 79 -159 1 -113 -407
236 -707 417 -707 426 0 5 61 75 137 154 75 79 158 167 185 196 26 28 51 48
54 45 3 -4 41 -83 84 -177z m-3865 -380 c83 -269 169 -548 191 -620 22 -71 42
-137 45 -145 2 -8 -12 3 -32 25 -20 22 -107 114 -193 204 -86 90 -176 185
-200 210 -23 25 -75 80 -115 121 -266 281 -361 382 -364 388 -2 7 509 314 514
309 1 -1 70 -222 154 -492z m2940 375 c52 -31 143 -85 202 -119 60 -35 110
-66 112 -70 3 -4 -18 -33 -47 -63 -133 -143 -190 -204 -326 -348 -212 -225
-369 -392 -465 -494 -25 -28 -46 -47 -46 -43 0 5 57 202 303 1044 l61 212 56
-31 c30 -18 98 -57 150 -88z m-2465 -250 c308 -189 597 -366 643 -393 45 -27
82 -52 82 -56 0 -5 -726 -448 -837 -510 -24 -13 -45 -22 -48 -19 -5 4 -140
440 -360 1155 -29 95 -50 171 -46 169 3 -2 258 -158 566 -346z m2194 318 c-5
-18 -32 -109 -59 -203 -27 -93 -85 -296 -130 -450 -44 -154 -104 -360 -132
-458 -28 -99 -57 -181 -64 -184 -6 -2 -74 33 -150 79 -77 45 -148 88 -159 94
-26 14 -599 355 -602 358 -5 4 62 45 667 411 316 191 589 356 605 366 17 10
31 19 32 19 1 0 -3 -15 -8 -32z m-3360 -400 c43 -46 93 -99 111 -118 18 -19
69 -73 114 -120 44 -47 153 -162 241 -255 88 -93 203 -214 256 -270 53 -55
129 -135 169 -178 43 -45 85 -81 100 -84 18 -3 68 -60 185 -210 88 -113 165
-210 170 -217 6 -6 55 -67 108 -136 54 -69 103 -132 110 -140 7 -8 72 -91 146
-185 73 -93 147 -187 165 -209 46 -57 44 -62 -15 -24 -30 19 -205 128 -389
242 -184 115 -351 219 -370 232 -19 12 -482 301 -1028 642 l-993 619 413 246
c227 135 416 246 420 246 4 1 43 -36 87 -81z m4473 -163 l408 -239 -33 -20
c-17 -10 -54 -34 -82 -51 -27 -18 -225 -141 -440 -275 -214 -133 -406 -253
-425 -265 -19 -13 -145 -91 -280 -175 -135 -84 -267 -167 -295 -185 -27 -17
-251 -157 -497 -311 -246 -153 -514 -321 -595 -372 -82 -51 -161 -100 -177
-108 l-29 -16 32 38 c34 40 96 116 566 689 153 187 294 359 314 383 19 23 43
42 52 42 17 0 108 92 474 485 65 70 165 176 316 335 80 85 174 185 209 222 34
37 65 66 69 64 3 -1 189 -110 413 -241z m-2414 -328 c213 -125 858 -511 864
-516 7 -6 -29 -53 -148 -196 -18 -22 -90 -110 -159 -195 -130 -158 -153 -186
-246 -300 -30 -36 -59 -72 -66 -80 -39 -49 -118 -146 -123 -150 -3 -3 -40 -49
-83 -102 -43 -53 -84 -101 -91 -107 -9 -8 -12 172 -12 835 0 464 2 844 4 844
2 0 29 -15 60 -33z m-108 -819 l0 -841 -105 134 c-58 74 -156 199 -218 277
-61 79 -117 149 -122 155 -6 7 -68 86 -139 177 -72 91 -169 215 -218 276 -48
62 -88 116 -88 120 0 7 876 543 888 544 1 0 2 -379 2 -842z"/>
</g>
</svg>
