<svg xmlns="http://www.w3.org/2000/svg" viewBox="0 0 505.82 309.04"><defs><clipPath id="a"><path d="M356.4 110.27l109.5 64.2 37.5-148.2-147 84z" fill="none"/></clipPath><clipPath id="b"><path d="M38.95 174.51l110.95-64.24-147-83.5 36.05 147.74z" fill="none"/></clipPath></defs><path stroke="#158184" stroke-linecap="round" stroke-miterlimit="10" stroke-width="3" d="M117.4 4.27l-78 170 213 133 213-133-79-170-61 212-73-43-70 43-65-212zm348 170l-109-64-31 106-73 89-70-89-33-106-108 64m315-64l-104 63-103-63m103 195v-132" fill="none"/><path stroke="#fff" stroke-linejoin="round" stroke-width="8" d="M432.12 102.12L325.32 215.8l-72.23-42.98-71 42.95L73.04 100.75" fill="none"/><path stroke="#fff" stroke-linejoin="round" stroke-width="8" d="M502.9 26.77L325.32 215.8l-72.23-42.98-71 42.95L2.9 26.77" clip-path="url(#a)" fill="none"/><path stroke="#fff" stroke-linejoin="round" stroke-width="8" d="M502.9 26.77L325.32 215.8l-72.23-42.98-71 42.95L2.9 26.77" clip-path="url(#b)" fill="none"/><path stroke="#158184" stroke-miterlimit="10" stroke-width="3" d="M38.95 174.51L2.9 26.77l147 83.5m316 64.2l37.5-148.2-147 84" fill="none"/></svg>